<svg id="Layer_2" data-name="Layer 2" xmlns="http://www.w3.org/2000/svg" viewBox="0 0 484.98 236.58"><defs><style>.cls-1{font-size:212.94px;font-family:StackyardPERSONALUSE, Stackyard PERSONAL USE;}.cls-1,.cls-2{fill:#fff;}</style></defs><title>SIGN white</title><text class="cls-1" transform="translate(0 170.36) scale(1.02 1)">Nayla</text><path class="cls-2" d="M465.48,241.92c-2.43,4,1.95,7.75,5.94,6.06,3-1.3,5.66-4.66,7.86-7a67.8,67.8,0,0,0,7.37-9.29c7.75-11.92,10.29-28.31.91-40.12-9.68-12.17-27.35-15.18-41.78-17.36-18.46-2.79-37.15-3.21-55.79-3-78.7.91-157,12-234.68,23.52C122.54,199.58,89.41,205.34,59,219a171,171,0,0,0-21.67,11.61c-6.65,4.23-13.9,8.85-18.7,15.23-3.77,5-5.69,11.77-3.41,17.84s8.42,8.91,14.43,10.14c37,7.64,76.65-1.08,113.1-7.85,39.6-7.35,79.41-13.43,119.33-18.79,39.39-5.28,78.85-9.89,118.3-14.71,18.3-2.24,36.61-4.63,54.66-8.44,9-1.9,18-4.16,26.78-6.92,7.38-2.32,15.85-4.5,22.24-9,4.46-3.18,7.54-7.62,6.14-13.23-.78-3.12-5.61-1.8-4.82,1.33,2,7.9-11.84,11.66-17,13.49-7.53,2.67-15.2,4.92-23,6.86a448.49,448.49,0,0,1-49.73,9c-34.68,4.62-69.47,8.39-104.18,12.81-34.22,4.35-68.41,9-102.46,14.53-34.86,5.62-69.54,13.89-104.72,17.24-17.12,1.63-34.87,2.14-51.88-.85-3.41-.6-7.18-1.39-9.86-3.73-3.79-3.31-4-8.49-2.15-12.92,3.07-7.32,11-12.17,17.35-16.36C62.59,220,91.43,211.4,120.32,205.66c31.84-6.33,64.23-10.28,96.38-14.65,35.32-4.8,70.74-9,106.29-11.74,34.48-2.63,69.63-4.76,104.17-2.16,15.31,1.15,32.86,2.62,46.73,9.85,6.78,3.54,12.38,9,14.12,16.68s-.14,15.9-4,22.78-10.29,11.58-14.19,18c1.67-2.76-2.65-5.28-4.32-2.52Z" transform="translate(-8.83 -115.02)"/><path class="cls-2" d="M377.72,153.53l-.44.44,2.43-.64c-2.59-.78-5.76-4.14-7.85-5.85-2.6-2.14-4.87-4.51-5.71-7.9-.73-2.9-.46-7.25,2.57-8.86a4,4,0,0,1,5.14,1.88c.53,1.14.17,3.46.07,4.72-.23,2.92,4.08,3.24,4.91.66.93-2.87,2.5-5.9,5.09-7.61,7.06-4.67,6.08,4.16,4.14,7.24-3.13,5-7.29,9.53-10.93,14.17l4.18,1.1c-.94-4.47,1.39-8.19,4.22-11.43,1.45-1.65,3.74-3.11,4.79-5.06a4.15,4.15,0,0,0-3.55-6.28c-4.23-.22-6.36,4.81-7.75,8-.94,2.16-2.12,7.64-5,5.35s-2.49-8.2-1.84-11.08l-3.67,1.49c1.63,1.07.6,6.35,2.21,8.32a8,8,0,0,0,7,2.64c7.41-.82,9.42-9.18,12.89-14.38,1.32-2-1.41-5-3.42-3.42a79.44,79.44,0,0,0-11.66,10.87l3.93,3,4.37-6.1c1.43-2-1.42-4.85-3.42-3.42L374,136l-3.24,2.32a1.13,1.13,0,0,0-.33-.64c-2.07-.94-2.46-2.71-5.18-1.76l3.08,1.75-.67-3.71c-.5-2.74-5.2-2.15-4.91.66.64,6.19,3.91,11.25,9.65,13.86,1.54.7,4-.08,3.76-2.16a6.49,6.49,0,0,0-1.12-3.54c-1.71-2.72-6-.21-4.32,2.52l.44,1,3.76-2.16a11.5,11.5,0,0,1-7.17-9.54l-4.91.66.67,3.71a2.51,2.51,0,0,0,3.08,1.75,14.62,14.62,0,0,0,2,2.22,4.33,4.33,0,0,0,2.84.52c3.84-.66,8.46-5.57,11.58-7.81l-3.42-3.42-4.37,6.1c-1.65,2.3,2.07,5.16,3.93,3a73.3,73.3,0,0,1,10.65-10.09l-3.42-3.42c-1.86,2.8-7.16,16.24-11.18,10.29-2.06-3.05-.47-6.31-4.05-8.67a2.52,2.52,0,0,0-3.67,1.49,19.11,19.11,0,0,0,3.23,16.15c3.21,4.18,6.72,3.54,9.7-.54,1.68-2.31,2.49-5,3.68-7.58.39-.84,2.43-4,1.6-4.8-.08-.07-3.83,3.9-4.18,4.3-3.91,4.52-6.21,9.64-4.95,15.65.36,1.72,3,2.57,4.18,1.1,4-5.14,8.9-10.18,12.14-15.86,2.15-3.75,3-8.3.46-12.1-6.55-9.8-17.07,2.49-19.26,9.29l4.91.66c.35-4.53-.21-9.61-5-11.51-4.58-1.81-9.49.69-11.68,4.84-2.5,4.73-1.58,10.73,1.2,15.12,1.76,2.78,4.28,4.8,6.85,6.79s5.11,4.7,8.1,5.6a2.5,2.5,0,0,0,2.43-.64l.44-.44c2.28-2.27-1.25-5.81-3.54-3.54Z" transform="translate(-8.83 -115.02)"/><path class="cls-2" d="M373.36,139.87l1.42-5.76-4.91-.66-.05,3.82h5a26.12,26.12,0,0,0-1.14-6.91c-.7-2.27-4.23-2.49-4.82,0-1.76,7.36-4.09,19.45,4.75,23.26,1.93.83,4.25-.54,3.67-2.82l-1.14-4.48c-.79-3.12-5.61-1.8-4.82,1.33l1.14,4.48,3.67-2.82c-6.28-2.7-3.66-12.54-2.45-17.61h-4.82a21,21,0,0,1,1,5.58c.11,3.21,5,3.23,5,0l.05-3.82c0-2.79-4.23-3.43-4.91-.66l-1.42,5.76c-.77,3.12,4,4.46,4.82,1.33Z" transform="translate(-8.83 -115.02)"/></svg>