<svg id="Layer_2" data-name="Layer 2" xmlns="http://www.w3.org/2000/svg" viewBox="0 0 411.67 200.34"><defs><style>.cls-1{font-size:180.32px;font-family:StackyardPERSONALUSE, Stackyard PERSONAL USE;}</style></defs><title>SIGN</title><text class="cls-1" transform="translate(0 144.26) scale(1.02 1)">Nayla</text><path d="M402.27,234.24a4,4,0,0,0,3.88,6.09c5-.36,10.27-8.22,13-11.82,7.33-9.82,11.22-23.8,4.36-35-6.67-10.85-20.32-14.29-32-16.46-16.05-3-32.42-3.62-48.72-3.55-68.23.29-136.08,10-203.46,19.86-28.61,4.2-57.55,9.07-84.14,20.94a146.49,146.49,0,0,0-18.93,10.11C30.61,228,24.49,232,20.36,237.28c-7.34,9.48-3.92,21.38,7.79,24.42,15.08,3.91,32.21,3,47.56,1.56,16.52-1.52,32.84-4.55,49.13-7.58,34-6.31,68.08-11.58,102.3-16.19s68.41-8.59,102.63-12.77c15.77-1.93,31.55-4,47.1-7.28,7.78-1.65,15.5-3.6,23.08-6,6.44-2,14-4,19.41-8.18,3.63-2.82,5.79-6.54,4.7-11.18-.74-3.13-5.56-1.8-4.82,1.33,1.56,6.6-10.08,9.61-14.53,11.18a218,218,0,0,1-21.11,6.21,401.63,401.63,0,0,1-42.85,7.55c-28.86,3.78-57.79,7-86.67,10.63-29.45,3.74-58.87,7.77-88.18,12.5s-58.64,11.67-88.29,14.61c-14.57,1.44-29.54,1.86-44.05-.41-6.84-1.07-14.24-4-11.8-12.55,1.94-6.8,9.36-11.33,14.88-15,21.46-14.22,46.5-21.57,71.53-26.5,27.12-5.34,54.71-8.72,82.09-12.44,29.91-4.06,59.89-7.64,90-9.95,32.45-2.49,66-4.82,98.39-1,12.92,1.51,32.09,3.34,40.12,15.28,4.53,6.73,3.94,15.59.74,22.73a41.45,41.45,0,0,1-5.88,9.24c-1.06,1.29-2.19,2.53-3.35,3.73q-1.16,1.2-2.37,2.35a2.54,2.54,0,0,0-1.33,3.24c1.67-2.76-2.65-5.28-4.32-2.52Z" transform="translate(-15.37 -125.4)"/><path d="M329,160.34c.13.5-.74.45-1.15.14l-5.21-4a24.72,24.72,0,0,1-5.16-4.82,12.4,12.4,0,0,1-2.3-6.16,8.66,8.66,0,0,1,2.68-7.45c2.12-1.75,5.66-1.8,7.41.32,1.46,1.77,1.33,4.31,1.12,6.59a14.81,14.81,0,0,1,5.1-7.69,6.3,6.3,0,0,1,4.69-1.63c2.69.43,4.21,3.61,3.81,6.31s-2.14,5-3.82,7.12l-7.66,9.77a10.74,10.74,0,0,1,1.5-8.39,34.76,34.76,0,0,1,5.75-6.59,2.41,2.41,0,0,0,1-1.7,1.59,1.59,0,0,0-1.9-1.26,3.55,3.55,0,0,0-2,1.47c-2.59,3.35-3,8.22-6.22,10.95a1.84,1.84,0,0,1-1.49.56,1.93,1.93,0,0,1-.91-.6,13.77,13.77,0,0,1-3.41-13.13c1.13.43,1.58,1.79,1.63,3a12.08,12.08,0,0,0,.24,3.59c.78,2.2,3.69,3.06,5.89,2.25s3.74-2.79,4.86-4.84a50.51,50.51,0,0,1,3.34-6.16,58.48,58.48,0,0,0-9.54,9l3.74-5.22-8.3,6a2.2,2.2,0,0,1-1.09.51c-.88.06-1.44-.88-1.95-1.6s-1.57-1.38-2.19-.74l-.58-3.17a11.57,11.57,0,0,0,7.19,10,2.29,2.29,0,0,0-.67-2" transform="translate(-15.37 -125.4)"/><path d="M327.27,158.58l-.37.37,2.43-.64c-1.92-.58-4.48-3.24-6-4.46a17.93,17.93,0,0,1-3.84-3.85c-1.57-2.32-2.7-5.9-1.12-8.58q2.75-4.44,5.68.75a21.47,21.47,0,0,1-.11,2.8c-.22,2.93,4.06,3.22,4.91.66.51-1.53,5.53-11.52,8.67-5.37.83,1.63-1.59,5-2.45,6.25-2.6,3.63-5.52,7.06-8.27,10.57l4.18,1.1c-.79-4,1.52-7.2,4.12-10.06,1.26-1.38,3.11-2.56,3.81-4.36a3.89,3.89,0,0,0-3.69-5.31c-3.49,0-5.34,3.62-6.58,6.39-.66,1.47-1.62,6.25-4,5s-1.84-7-1.4-9l-3.67,1.49c.44.34.62,4.89,1,5.69a6,6,0,0,0,1.78,2.25,7.34,7.34,0,0,0,5.46,1.46c6.36-.78,8.23-7.92,11.17-12.46,1.29-2-1.4-5-3.42-3.42a69.46,69.46,0,0,0-10,9.35l3.93,3,3.74-5.22c1.43-2-1.42-4.85-3.42-3.42-3,2.14-6.07,4.91-9.39,6.46h2.52c-2.33-1.06-3-3.66-6.06-2.59l3.08,1.75-.58-3.17c-.5-2.74-5.24-2.14-4.91.66.63,5.46,3.39,9.79,8.43,12.17,1.54.72,4-.1,3.76-2.16a6.06,6.06,0,0,0-1-3.21c-1.71-2.72-6-.21-4.32,2.52l.32.69,3.76-2.16a9.66,9.66,0,0,1-6-7.85l-4.91.66.58,3.17a2.51,2.51,0,0,0,3.08,1.75c-.93.32,2.39,2.15,2.21,2.09a3.48,3.48,0,0,0,2.22.13c3.22-.62,7.06-4.7,9.69-6.59l-3.42-3.42-3.74,5.22c-1.65,2.3,2.06,5.16,3.93,3a63.09,63.09,0,0,1,9-8.57l-3.42-3.42c-1.87,2.88-5.61,14.41-9.66,6.41-1.07-2.11-.7-3.5-2.87-5.15-1.26-1-3.36.05-3.67,1.49a16.79,16.79,0,0,0,2.72,14c2.44,3.26,5.45,3.73,8.24.62a21,21,0,0,0,3.29-6c.46-1.08,2.95-5.06,1.41-6-.24-.15-3.51,3.58-3.68,3.78-3.41,4-5.25,8.39-4.22,13.63.34,1.73,3,2.56,4.18,1.1,4.55-5.8,16.44-16.19,10.81-24.42-5.87-8.59-15.1,2-17.11,8.11l4.91.66c.3-4.12-.33-8.77-4.82-10.3-4.23-1.44-8.53,1-10.33,4.85-2.08,4.45-1,9.77,1.78,13.66,2.49,3.48,8.36,8.72,12.44,10a2.5,2.5,0,0,0,2.43-.64l.37-.37c2.28-2.27-1.25-5.81-3.54-3.54Z" transform="translate(-15.37 -125.4)"/></svg>